# xmcd
#
# Track frame offsets:
#	150
#	63927
#	140680
#	196640
#	264160
#	300475
#
# Disc length: 4682 seconds
#
# Revision: 1
# Processed by: cddbd v1.5.2PL0 Copyright (c) Steve Scherf et al.
# Submitted via: audiograbber 1.83.01
#
DISCID=47124806
DTITLE=Kempowski, Walter - Schöne Aussicht - CD 9
DYEAR=1900
DGENRE=
TTITLE0=Musik, Kapitel 9, Abschnitt 1
TTITLE1=Kapitel 9, Abschnitt 2
TTITLE2=Kapitel 9, Abschnitt 3
TTITLE3=Kapitel 9, Abschnitt 4
TTITLE4=Musik, III Teil, Kapitel 10
TTITLE5=Musik, Kapitel 10, Abschnitt 1
EXTD=
EXTT0=
EXTT1=
EXTT2=
EXTT3=
EXTT4=
EXTT5=
PLAYORDER=
